<?xml version="1.0" encoding="UTF-8" standalone="no"?>
<!-- Created with Inkscape (http://www.inkscape.org/) -->

<svg
   width="29.800501mm"
   height="16.401859mm"
   viewBox="0 0 29.800501 16.401859"
   version="1.1"
   id="svg29748"
   inkscape:version="1.2.2 (732a01da63, 2022-12-09)"
   sodipodi:docname="broken clouds.svg"
   xmlns:inkscape="http://www.inkscape.org/namespaces/inkscape"
   xmlns:sodipodi="http://sodipodi.sourceforge.net/DTD/sodipodi-0.dtd"
   xmlns="http://www.w3.org/2000/svg"
   xmlns:svg="http://www.w3.org/2000/svg">
  <sodipodi:namedview
     id="namedview29750"
     pagecolor="#ffffff"
     bordercolor="#000000"
     borderopacity="0.25"
     inkscape:showpageshadow="2"
     inkscape:pageopacity="0.0"
     inkscape:pagecheckerboard="0"
     inkscape:deskcolor="#d1d1d1"
     inkscape:document-units="mm"
     showgrid="false"
     inkscape:zoom="0.73851712"
     inkscape:cx="7.4473562"
     inkscape:cy="234.2532"
     inkscape:window-width="1920"
     inkscape:window-height="1009"
     inkscape:window-x="-8"
     inkscape:window-y="-8"
     inkscape:window-maximized="1"
     inkscape:current-layer="layer1" />
  <defs
     id="defs29745" />
  <g
     inkscape:label="Layer 1"
     inkscape:groupmode="layer"
     id="layer1"
     transform="translate(-102.96827,-86.738756)">
    <g
       id="g18766"
       transform="translate(99.16594,-22.271974)">
      <path
         id="path13068"
         style="opacity:0.86;fill:#294f8b;fill-opacity:1;stroke-width:0.472916;-inkscape-stroke:none;stop-color:#000000"
         d="m 20.329216,109.01073 a 5.2916665,5.2916665 0 0 0 -5.17591,4.20285 5.2916665,5.2916665 0 0 0 -4.86534,5.27358 5.2916665,5.2916665 0 0 0 5.06429,5.28289 v 0.009 h 14.54692 a 3.4075234,3.4075234 0 0 0 0.2961,0.014 3.4075234,3.4075234 0 0 0 0.29353,-0.014 3.4075234,3.4075234 0 0 0 3.11402,-3.39361 3.4075234,3.4075234 0 0 0 -3.11402,-3.39461 v -0.74828 h -0.14625 a 4.6199236,4.6199236 0 0 0 -4.45967,-3.41581 4.6199236,4.6199236 0 0 0 -0.46458,0.0264 5.2916665,5.2916665 0 0 0 -5.08909,-3.84215 z" />
      <path
         id="path13070"
         style="opacity:1;fill:#f2f2f2;fill-opacity:1;stroke-width:0.472916;-inkscape-stroke:none;stop-color:#000000"
         d="m 13.843566,110.63037 a 5.2916665,5.2916665 0 0 0 -5.1759103,4.20285 5.2916665,5.2916665 0 0 0 -4.86533,5.27358 5.2916665,5.2916665 0 0 0 5.06429,5.28289 v 0.009 H 23.413526 a 3.4075234,3.4075234 0 0 0 0.29611,0.0139 3.4075234,3.4075234 0 0 0 0.29352,-0.0139 3.4075234,3.4075234 0 0 0 3.11401,-3.39361 3.4075234,3.4075234 0 0 0 -3.11401,-3.39462 v -0.74828 h -0.14624 a 4.6199236,4.6199236 0 0 0 -4.45968,-3.41581 4.6199236,4.6199236 0 0 0 -0.46457,0.0263 5.2916665,5.2916665 0 0 0 -5.0891,-3.84214 z" />
    </g>
  </g>
</svg>
