<?xml version="1.0" encoding="UTF-8" standalone="no"?>
<!-- Created with Inkscape (http://www.inkscape.org/) -->

<svg
   width="23.314856mm"
   height="16.860691mm"
   viewBox="0 0 23.314856 16.860691"
   version="1.1"
   id="svg22000"
   inkscape:version="1.2.2 (732a01da63, 2022-12-09)"
   sodipodi:docname="few clouds day.svg"
   xmlns:inkscape="http://www.inkscape.org/namespaces/inkscape"
   xmlns:sodipodi="http://sodipodi.sourceforge.net/DTD/sodipodi-0.dtd"
   xmlns="http://www.w3.org/2000/svg"
   xmlns:svg="http://www.w3.org/2000/svg">
  <sodipodi:namedview
     id="namedview22002"
     pagecolor="#ffffff"
     bordercolor="#000000"
     borderopacity="0.25"
     inkscape:showpageshadow="2"
     inkscape:pageopacity="0.0"
     inkscape:pagecheckerboard="0"
     inkscape:deskcolor="#d1d1d1"
     inkscape:document-units="mm"
     showgrid="false"
     inkscape:zoom="0.73851712"
     inkscape:cx="-191.60016"
     inkscape:cy="266.75076"
     inkscape:window-width="1920"
     inkscape:window-height="1009"
     inkscape:window-x="-8"
     inkscape:window-y="-8"
     inkscape:window-maximized="1"
     inkscape:current-layer="layer1" />
  <defs
     id="defs21997" />
  <g
     inkscape:label="Layer 1"
     inkscape:groupmode="layer"
     id="layer1"
     transform="translate(-155.65138,-78.269293)">
    <g
       id="g21984"
       transform="translate(146.02246,29.250004)">
      <circle
         style="opacity:0.86;fill:#ffdc00;fill-opacity:1;stroke-width:0.132457;-inkscape-stroke:none;stop-color:#000000"
         id="circle8538"
         cx="26.742701"
         cy="54.310955"
         r="5.2916665" />
      <path
         id="path8536"
         style="opacity:1;fill:#f2f2f2;fill-opacity:1;stroke-width:0.472916;-inkscape-stroke:none;stop-color:#000000"
         d="m 19.670162,51.09778 a 5.2916665,5.2916665 0 0 0 -5.175911,4.20284 5.2916665,5.2916665 0 0 0 -4.8653357,5.27358 5.2916665,5.2916665 0 0 0 5.0642897,5.28288 v 0.009 h 14.546916 a 3.4075234,3.4075234 0 0 0 0.296106,0.0139 3.4075234,3.4075234 0 0 0 0.293522,-0.0139 3.4075234,3.4075234 0 0 0 3.114022,-3.39359 3.4075234,3.4075234 0 0 0 -3.114022,-3.39463 v -0.74827 h -0.146244 a 4.6199236,4.6199236 0 0 0 -4.459676,-3.41581 4.6199236,4.6199236 0 0 0 -0.464571,0.0263 5.2916665,5.2916665 0 0 0 -5.089096,-3.84215 z" />
    </g>
  </g>
</svg>
