<svg width="35" height="35" viewBox="0 0 35 35" fill="none" xmlns="http://www.w3.org/2000/svg">
<path d="M25.6769 15.3049L18.4264 3.75924C18.3212 3.61159 18.1822 3.49123 18.0211 3.40818C17.86 3.32513 17.6813 3.2818 17.5 3.2818C17.3187 3.2818 17.14 3.32513 16.9789 3.40818C16.8178 3.49123 16.6788 3.61159 16.5736 3.75924L9.29031 15.3596C8.27847 16.9917 7.71484 18.8618 7.65625 20.7813C7.65625 23.392 8.69336 25.8958 10.5394 27.7419C12.3855 29.5879 14.8893 30.625 17.5 30.625C20.1107 30.625 22.6145 29.5879 24.4606 27.7419C26.3066 25.8958 27.3438 23.392 27.3438 20.7813C27.2809 18.8407 26.7058 16.9514 25.6769 15.3049ZM17.5 28.4375C15.4702 28.4349 13.5244 27.6274 12.0891 26.1922C10.6538 24.7569 9.84635 22.811 9.84375 20.7813C9.90189 19.2518 10.3613 17.7644 11.1759 16.4686L12.1986 14.8389L23.217 25.8574C22.5014 26.6681 21.6216 27.3176 20.636 27.7626C19.6504 28.2076 18.5814 28.4369 17.5 28.4375Z" fill="white"/>
</svg>
