<?xml version="1.0" encoding="UTF-8" standalone="no"?>
<!-- Created with Inkscape (http://www.inkscape.org/) -->

<svg
   width="24.333178mm"
   height="28.287979mm"
   viewBox="0 0 24.333178 28.287979"
   version="1.1"
   id="svg34684"
   inkscape:version="1.2.2 (732a01da63, 2022-12-09)"
   sodipodi:docname="night rain.svg"
   xmlns:inkscape="http://www.inkscape.org/namespaces/inkscape"
   xmlns:sodipodi="http://sodipodi.sourceforge.net/DTD/sodipodi-0.dtd"
   xmlns="http://www.w3.org/2000/svg"
   xmlns:svg="http://www.w3.org/2000/svg">
  <sodipodi:namedview
     id="namedview34686"
     pagecolor="#ffffff"
     bordercolor="#000000"
     borderopacity="0.25"
     inkscape:showpageshadow="2"
     inkscape:pageopacity="0.0"
     inkscape:pagecheckerboard="0"
     inkscape:deskcolor="#d1d1d1"
     inkscape:document-units="mm"
     showgrid="false"
     inkscape:zoom="0.73851712"
     inkscape:cx="-557.19765"
     inkscape:cy="236.96133"
     inkscape:window-width="1920"
     inkscape:window-height="1009"
     inkscape:window-x="-8"
     inkscape:window-y="-8"
     inkscape:window-maximized="1"
     inkscape:current-layer="layer1" />
  <defs
     id="defs34681" />
  <g
     inkscape:label="Layer 1"
     inkscape:groupmode="layer"
     id="layer1"
     transform="translate(-252.23148,-85.811381)">
    <g
       id="g18734"
       transform="translate(199.03479,-102.91949)">
      <circle
         style="opacity:0.86;fill:#cccccc;fill-opacity:1;stroke-width:0.132457;-inkscape-stroke:none;stop-color:#000000"
         id="circle15346"
         cx="71.835472"
         cy="194.02254"
         r="5.2916665" />
      <path
         id="path15348"
         style="opacity:0.86;fill:#294f8b;fill-opacity:1;stroke-width:0.104301;-inkscape-stroke:none;stop-color:#000000"
         d="m 65.350406,204.40354 -1.351147,0.97282 c -0.30879,0.16678 -0.94222,0.64707 -1.16842,0.99488 l -0.002,0.002 10e-4,5.6e-4 c -0.0152,0.0245 -0.0278,0.0588 -0.0414,0.0843 -0.328273,0.61622 -0.0948,1.38189 0.52138,1.71017 0.61627,0.3283 1.38199,0.0948 1.71024,-0.52147 0.189847,-0.5454 0.321227,-1.27844 0.310407,-1.82563 z"
         sodipodi:nodetypes="ccccccsccc" />
      <path
         id="path15350"
         style="opacity:0.86;fill:#294f8b;fill-opacity:1;stroke-width:0.102504;-inkscape-stroke:none;stop-color:#000000"
         d="m 63.711568,212.82991 -1.12943,0.95359 c -0.261637,0.15672 -0.789588,0.63047 -0.966951,0.99391 l -0.0016,0.001 7.95e-4,6.2e-4 c -0.01199,0.0256 -0.02082,0.0624 -0.03125,0.0893 -0.250343,0.65028 0.0039,1.5145 0.567929,1.93026 0.564038,0.41579 1.224238,0.22562 1.474548,-0.42474 0.132818,-0.58436 0.202191,-1.38064 0.15799,-1.98458 z"
         sodipodi:nodetypes="ccccccsccc" />
      <path
         id="path15352"
         style="opacity:0.86;fill:#294f8b;fill-opacity:1;stroke-width:0.0884462;-inkscape-stroke:none;stop-color:#000000"
         d="m 71.85555,204.12572 -1.194228,1.21236 c -0.262932,0.22173 -0.827152,0.81422 -1.060364,1.20144 l -0.0016,10e-4 6.04e-4,3.3e-4 c -0.01604,0.0271 -0.03161,0.0636 -0.04645,0.0915 -0.358511,0.673 -0.320232,1.39382 0.08551,1.60998 0.405764,0.21617 1.025354,-0.15424 1.383848,-0.82731 0.24136,-0.57752 0.47237,-1.33147 0.56268,-1.87468 z"
         sodipodi:nodetypes="ccccccsccc" />
      <path
         id="path15354"
         style="opacity:0.86;fill:#294f8b;fill-opacity:1;stroke-width:0.0844193;-inkscape-stroke:none;stop-color:#000000"
         d="m 67.3019,209.55671 -0.925756,0.65263 -0.301018,0.16674 c -0.257052,0.13677 -0.480252,0.27433 -0.623474,0.50249 l -0.0018,0.001 7.15e-4,3.8e-4 c -0.01246,0.0198 -0.02252,0.0476 -0.03361,0.0682 -0.265707,0.49878 -0.07677,1.1185 0.421992,1.3842 0.498799,0.26572 1.118564,0.0767 1.384239,-0.42208 0.14026,-0.26344 0.09463,-0.5155 0.06437,-0.84693 l -0.0072,-0.36259 z"
         sodipodi:nodetypes="cccccccscccc" />
      <path
         id="path15356"
         style="opacity:0.86;fill:#294f8b;fill-opacity:1;stroke-width:0.104301;-inkscape-stroke:none;stop-color:#000000"
         d="m 55.907401,210.87774 -1.351159,0.97284 c -0.308787,0.16677 -0.942223,0.64707 -1.168419,0.99487 l -0.0019,0.001 9.71e-4,5.2e-4 c -0.01539,0.0244 -0.02782,0.0588 -0.0415,0.0843 -0.328281,0.61623 -0.09485,1.38191 0.521376,1.71019 0.616268,0.32829 1.38199,0.0948 1.710234,-0.52149 0.189864,-0.54539 0.321234,-1.27843 0.310413,-1.82562 z"
         sodipodi:nodetypes="ccccccsccc" />
      <path
         id="path15358"
         style="opacity:0.86;fill:#294f8b;fill-opacity:1;stroke-width:0.109273;-inkscape-stroke:none;stop-color:#000000"
         d="m 61.430374,207.10281 -1.533545,1.30213 c -0.326694,0.22367 -1.056,0.86636 -1.391895,1.33043 l -0.0023,0.002 5.5e-4,6.4e-4 c -0.02318,0.0326 -0.04826,0.0785 -0.07038,0.11242 -0.535182,0.82178 -0.669911,1.83917 -0.300916,2.2724 0.36902,0.43325 1.102062,0.11819 1.637246,-0.70368 0.390421,-0.72674 0.812796,-1.70281 1.038064,-2.43079 z"
         sodipodi:nodetypes="ccccccsccc" />
      <path
         id="path15360"
         style="fill:#f2f2f2;fill-opacity:1;stroke-width:0.472916;-inkscape-stroke:none;stop-color:#000000"
         d="m 64.256274,190.04938 a 5.2916665,5.2916665 0 0 0 -5.175911,4.20285 5.2916665,5.2916665 0 0 0 -4.865336,5.27358 5.2916665,5.2916665 0 0 0 5.06429,5.28289 v 0.009 H 73.82623 a 3.4075234,3.4075234 0 0 0 0.29611,0.0139 3.4075234,3.4075234 0 0 0 0.29352,-0.0139 3.4075234,3.4075234 0 0 0 3.11401,-3.3936 3.4075234,3.4075234 0 0 0 -3.11401,-3.39463 v -0.74828 h -0.14624 a 4.6199236,4.6199236 0 0 0 -4.459679,-3.41581 4.6199236,4.6199236 0 0 0 -0.464571,0.0263 5.2916665,5.2916665 0 0 0 -5.089096,-3.84214 z" />
      <path
         id="path15362"
         style="opacity:0.86;fill:#294f8b;fill-opacity:1;stroke-width:0.104301;-inkscape-stroke:none;stop-color:#000000"
         d="m 59.074218,203.31457 -1.351159,0.97283 c -0.308787,0.16677 -0.942222,0.64707 -1.168419,0.99488 l -0.0019,0.001 9.71e-4,5.2e-4 c -0.01539,0.0244 -0.02782,0.0588 -0.0415,0.0843 -0.328281,0.61623 -0.09485,1.3819 0.521376,1.71018 0.616268,0.3283 1.381991,0.0948 1.710234,-0.52148 0.189864,-0.54539 0.321234,-1.27843 0.310413,-1.82562 z"
         sodipodi:nodetypes="ccccccsccc" />
    </g>
  </g>
</svg>
