<?xml version="1.0" encoding="UTF-8" standalone="no"?>
<!-- Created with Inkscape (http://www.inkscape.org/) -->

<svg
   width="25.03837mm"
   height="15.87526mm"
   viewBox="0 0 25.03837 15.87526"
   version="1.1"
   id="svg25954"
   inkscape:version="1.2.2 (732a01da63, 2022-12-09)"
   sodipodi:docname="scattered clouds.svg"
   xmlns:inkscape="http://www.inkscape.org/namespaces/inkscape"
   xmlns:sodipodi="http://sodipodi.sourceforge.net/DTD/sodipodi-0.dtd"
   xmlns="http://www.w3.org/2000/svg"
   xmlns:svg="http://www.w3.org/2000/svg">
  <sodipodi:namedview
     id="namedview25956"
     pagecolor="#ffffff"
     bordercolor="#000000"
     borderopacity="0.25"
     inkscape:showpageshadow="2"
     inkscape:pageopacity="0.0"
     inkscape:pagecheckerboard="0"
     inkscape:deskcolor="#d1d1d1"
     inkscape:document-units="mm"
     showgrid="false"
     inkscape:zoom="0.73851712"
     inkscape:cx="-442.10214"
     inkscape:cy="180.09061"
     inkscape:window-width="1920"
     inkscape:window-height="1009"
     inkscape:window-x="-8"
     inkscape:window-y="-8"
     inkscape:window-maximized="1"
     inkscape:current-layer="layer1" />
  <defs
     id="defs25951" />
  <g
     inkscape:label="Layer 1"
     inkscape:groupmode="layer"
     id="layer1"
     transform="translate(-221.78479,-100.97445)">
    <path
       id="rect952"
       style="opacity:0.86;fill:#f2f2f2;fill-opacity:1;stroke-width:0.507876;-inkscape-stroke:none;stop-color:#000000"
       d="m 232.56832,100.97445 a 5.6828441,5.6828441 0 0 0 -5.55853,4.51353 5.6828441,5.6828441 0 0 0 -5.225,5.66342 5.6828441,5.6828441 0 0 0 5.43866,5.67341 v 0.01 h 15.62227 a 3.6594189,3.6594189 0 0 0 0.318,0.0149 3.6594189,3.6594189 0 0 0 0.31522,-0.0149 3.6594189,3.6594189 0 0 0 3.34422,-3.64446 3.6594189,3.6594189 0 0 0 -3.34422,-3.64557 v -0.80359 h -0.15706 a 4.9614438,4.9614438 0 0 0 -4.78934,-3.66832 4.9614438,4.9614438 0 0 0 -0.49892,0.0283 5.6828441,5.6828441 0 0 0 -5.4653,-4.12617 z" />
  </g>
</svg>
