<?xml version="1.0" encoding="UTF-8" standalone="no"?>
<!-- Created with Inkscape (http://www.inkscape.org/) -->

<svg
   width="14.937072mm"
   height="16.543579mm"
   viewBox="0 0 14.937072 16.543579"
   version="1.1"
   id="svg36519"
   inkscape:version="1.2.2 (732a01da63, 2022-12-09)"
   sodipodi:docname="snow.svg"
   xmlns:inkscape="http://www.inkscape.org/namespaces/inkscape"
   xmlns:sodipodi="http://sodipodi.sourceforge.net/DTD/sodipodi-0.dtd"
   xmlns="http://www.w3.org/2000/svg"
   xmlns:svg="http://www.w3.org/2000/svg">
  <sodipodi:namedview
     id="namedview36521"
     pagecolor="#ffffff"
     bordercolor="#000000"
     borderopacity="0.25"
     inkscape:showpageshadow="2"
     inkscape:pageopacity="0.0"
     inkscape:pagecheckerboard="0"
     inkscape:deskcolor="#d1d1d1"
     inkscape:document-units="mm"
     showgrid="false"
     inkscape:zoom="0.73851712"
     inkscape:cx="27.758328"
     inkscape:cy="32.497554"
     inkscape:window-width="1920"
     inkscape:window-height="1009"
     inkscape:window-x="-8"
     inkscape:window-y="-8"
     inkscape:window-maximized="1"
     inkscape:current-layer="layer1" />
  <defs
     id="defs36516" />
  <g
     inkscape:label="Layer 1"
     inkscape:groupmode="layer"
     id="layer1"
     transform="translate(-97.502531,-140.22821)">
    <path
       id="path18522"
       style="fill:#b3b3b3;fill-opacity:1;stroke-width:0.132982;-inkscape-stroke:none;stop-color:#000000"
       d="m 105.02414,140.22821 c -0.29161,0 -0.52643,0.23462 -0.52643,0.52622 v 0.68187 l -0.65037,-0.65037 c -0.2062,-0.2062 -0.53826,-0.2062 -0.74445,0 -0.2062,0.2062 -0.2062,0.53825 0,0.74445 l 1.06349,1.06329 c 0.0927,0.0927 0.2107,0.14359 0.33133,0.15298 v 3.16841 a 2.6178403,2.6178403 0 0 0 -1.41487,0.80805 l -2.70026,-1.55904 c 0.003,-0.0538 -0.003,-0.10885 -0.0174,-0.16383 l -0.389199,-1.45268 c -0.07547,-0.28167 -0.362975,-0.4477 -0.644644,-0.37223 -0.28167,0.0755 -0.447698,0.36297 -0.372225,0.64465 l 0.165456,0.61764 -0.542383,-0.31311 c -0.252538,-0.14581 -0.573285,-0.0599 -0.719089,0.19265 -0.145803,0.25254 -0.05988,0.57328 0.192657,0.71908 l 0.500048,0.28858 -0.612738,0.16423 c -0.281669,0.0755 -0.447697,0.36297 -0.372224,0.64465 0.07547,0.28166 0.362974,0.4477 0.644643,0.37222 l 1.452697,-0.3892 c 0.05357,-0.0144 0.102917,-0.0364 0.147255,-0.0646 l 2.733806,1.57827 a 2.6178403,2.6178403 0 0 0 -0.14296,0.84752 2.6178403,2.6178403 0 0 0 0.13886,0.83627 l -2.725412,1.57357 c -0.05699,-0.0476 -0.124988,-0.084 -0.201656,-0.10451 l -1.452697,-0.3892 c -0.281669,-0.0755 -0.56917,0.0906 -0.644643,0.37222 -0.07547,0.28167 0.09055,0.56918 0.372224,0.64466 l 0.697205,0.18672 -0.546883,0.31578 c -0.252538,0.1458 -0.33846,0.46634 -0.192657,0.71888 0.145803,0.25254 0.46655,0.33846 0.719088,0.19266 l 0.482255,-0.27835 -0.142959,0.53338 c -0.07547,0.28167 0.09055,0.56917 0.372225,0.64465 0.281669,0.0755 0.56917,-0.0906 0.644643,-0.37223 l 0.389197,-1.45249 c 0.008,-0.0306 0.0133,-0.0614 0.016,-0.0918 l 2.74424,-1.58441 a 2.6178403,2.6178403 0 0 0 1.42243,0.81706 v 3.4443 c -0.13272,0.001 -0.26501,0.0529 -0.36671,0.15462 l -1.06349,1.06328 c -0.2062,0.20619 -0.2062,0.53826 0,0.74445 0.20619,0.20619 0.53825,0.20619 0.74444,0 l 0.68576,-0.68595 v 0.48389 c 0,0.2916 0.23482,0.52643 0.52643,0.52643 0.2916,0 0.52643,-0.23483 0.52643,-0.52643 v -0.38347 l 0.59188,0.59188 c 0.20619,0.20619 0.53825,0.20619 0.74444,0 0.2062,-0.2062 0.2062,-0.53826 0,-0.74445 l -1.06349,-1.0635 c -0.0776,-0.0776 -0.17302,-0.12601 -0.27283,-0.14521 v -3.45984 a 2.6178403,2.6178403 0 0 0 1.43613,-0.8328 l 2.60005,1.50116 c -0.006,0.0622 -0.002,0.12667 0.0153,0.19082 l 0.38921,1.45249 c 0.0755,0.28167 0.36297,0.4477 0.64464,0.37223 0.28167,-0.0755 0.44769,-0.36298 0.37222,-0.64465 l -0.17445,-0.65077 0.67491,0.3896 c 0.25254,0.14581 0.57308,0.0599 0.71888,-0.19265 0.1458,-0.25254 0.0599,-0.57329 -0.19265,-0.71909 l -0.59045,-0.34094 0.57981,-0.15522 c 0.28167,-0.0755 0.4477,-0.36298 0.37223,-0.64465 -0.0755,-0.28167 -0.36298,-0.44769 -0.64465,-0.37222 l -1.45269,0.3892 c -0.0442,0.0118 -0.0855,0.0289 -0.12354,0.0503 l -2.66569,-1.539 a 2.6178403,2.6178403 0 0 0 0.13211,-0.81665 2.6178403,2.6178403 0 0 0 -0.13436,-0.82728 l 2.63563,-1.52162 c 0.0525,0.0395 0.11345,0.0699 0.181,0.088 l 1.45249,0.3892 c 0.28167,0.0755 0.56917,-0.0905 0.64465,-0.37222 0.0755,-0.28167 -0.0904,-0.56918 -0.37202,-0.64465 l -0.66326,-0.17772 0.61744,-0.35649 c 0.25254,-0.1458 0.33846,-0.46654 0.19266,-0.71907 -0.1458,-0.25255 -0.46655,-0.33846 -0.71909,-0.19266 l -0.59576,0.344 0.15196,-0.56713 c 0.0755,-0.28167 -0.0906,-0.56917 -0.37223,-0.64464 -0.28167,-0.0755 -0.56917,0.0906 -0.64464,0.37222 l -0.3892,1.4527 c -0.0109,0.0405 -0.0166,0.0811 -0.0178,0.12128 l -2.62827,1.51753 a 2.6178403,2.6178403 0 0 0 -1.43061,-0.82564 v -3.17557 c 0.11251,-0.0138 0.22148,-0.0638 0.30821,-0.15052 l 1.06349,-1.0635 c 0.2062,-0.2062 0.2062,-0.53825 0,-0.74445 -0.20619,-0.2062 -0.53825,-0.2062 -0.74444,0 l -0.62726,0.62726 v -0.65242 c 0,-0.2916 -0.23483,-0.52622 -0.52643,-0.52622 z m -0.1626,6.39101 h 2.1e-4 c 0.0511,0.0164 0.10566,0.0256 0.16239,0.0256 0.0567,0 0.11127,-0.009 0.16238,-0.0256 a 1.8658905,1.8658905 0 0 1 1.44902,0.9183 c 10e-4,0.002 0.002,0.004 0.004,0.007 0.002,0.003 0.003,0.005 0.005,0.008 a 1.8658905,1.8658905 0 0 1 0.24604,0.92545 1.8658905,1.8658905 0 0 1 -1.86603,1.86583 1.8658905,1.8658905 0 0 1 -1.86583,-1.86583 1.8658905,1.8658905 0 0 1 1.70323,-1.85866 z" />
  </g>
</svg>
