<svg width="40" height="40" viewBox="0 0 40 40" fill="none" xmlns="http://www.w3.org/2000/svg">
<path opacity="0.2" d="M18.75 15C18.0083 15 17.2833 14.7801 16.6666 14.368C16.0499 13.956 15.5693 13.3703 15.2855 12.6851C15.0016 11.9998 14.9274 11.2458 15.0721 10.5184C15.2168 9.79098 15.5739 9.1228 16.0984 8.59835C16.6228 8.0739 17.291 7.71675 18.0184 7.57206C18.7458 7.42736 19.4998 7.50162 20.1851 7.78545C20.8703 8.06928 21.456 8.54993 21.868 9.16661C22.2801 9.7833 22.5 10.5083 22.5 11.25C22.5 12.2446 22.1049 13.1984 21.4017 13.9017C20.6984 14.6049 19.7446 15 18.75 15ZM32.5 12.5C31.7583 12.5 31.0333 12.7199 30.4166 13.132C29.7999 13.544 29.3193 14.1297 29.0355 14.8149C28.7516 15.5002 28.6774 16.2542 28.8221 16.9816C28.9668 17.709 29.3239 18.3772 29.8484 18.9017C30.3728 19.4261 31.041 19.7833 31.7684 19.9279C32.4958 20.0726 33.2498 19.9984 33.9351 19.7146C34.6203 19.4307 35.206 18.9501 35.618 18.3334C36.0301 17.7167 36.25 16.9917 36.25 16.25C36.25 15.2554 35.8549 14.3016 35.1517 13.5984C34.4484 12.8951 33.4946 12.5 32.5 12.5ZM23.75 25C23.0083 25 22.2833 25.2199 21.6666 25.632C21.0499 26.044 20.5693 26.6297 20.2855 27.3149C20.0016 28.0002 19.9274 28.7542 20.0721 29.4816C20.2168 30.209 20.5739 30.8772 21.0984 31.4017C21.6228 31.9261 22.291 32.2833 23.0184 32.4279C23.7458 32.5726 24.4998 32.4984 25.1851 32.2146C25.8703 31.9307 26.456 31.4501 26.868 30.8334C27.2801 30.2167 27.5 29.4917 27.5 28.75C27.5 27.7554 27.1049 26.8016 26.4017 26.0984C25.6984 25.3951 24.7446 25 23.75 25Z" fill="white"/>
<path d="M28.75 28.75C28.75 30.0761 28.2232 31.3479 27.2855 32.2855C26.3479 33.2232 25.0761 33.75 23.75 33.75C21.6094 33.75 19.5391 32.3547 18.8281 30.4344C18.7199 30.1252 18.7374 29.7859 18.8768 29.4895C19.0162 29.1931 19.2664 28.9633 19.5735 28.8495C19.8807 28.7356 20.2202 28.7469 20.5191 28.8808C20.818 29.0147 21.0524 29.2606 21.1719 29.5656C21.5219 30.5109 22.6562 31.25 23.75 31.25C24.413 31.25 25.0489 30.9866 25.5178 30.5178C25.9866 30.0489 26.25 29.413 26.25 28.75C26.25 28.087 25.9866 27.4511 25.5178 26.9822C25.0489 26.5134 24.413 26.25 23.75 26.25H6.25C5.91848 26.25 5.60054 26.1183 5.36612 25.8839C5.1317 25.6495 5 25.3315 5 25C5 24.6685 5.1317 24.3505 5.36612 24.1161C5.60054 23.8817 5.91848 23.75 6.25 23.75H23.75C25.0761 23.75 26.3479 24.2768 27.2855 25.2145C28.2232 26.1521 28.75 27.4239 28.75 28.75ZM18.75 16.25C20.0761 16.25 21.3479 15.7232 22.2855 14.7855C23.2232 13.8479 23.75 12.5761 23.75 11.25C23.75 9.92392 23.2232 8.65215 22.2855 7.71447C21.3479 6.77678 20.0761 6.25 18.75 6.25C16.6094 6.25 14.5391 7.64531 13.8281 9.56563C13.7199 9.87479 13.7374 10.2141 13.8768 10.5105C14.0162 10.8069 14.2664 11.0367 14.5735 11.1505C14.8807 11.2644 15.2202 11.2531 15.5191 11.1192C15.818 10.9853 16.0524 10.7394 16.1719 10.4344C16.5219 9.48906 17.6562 8.75 18.75 8.75C19.413 8.75 20.0489 9.01339 20.5178 9.48223C20.9866 9.95107 21.25 10.587 21.25 11.25C21.25 11.913 20.9866 12.5489 20.5178 13.0178C20.0489 13.4866 19.413 13.75 18.75 13.75H3.75C3.41848 13.75 3.10054 13.8817 2.86612 14.1161C2.6317 14.3505 2.5 14.6685 2.5 15C2.5 15.3315 2.6317 15.6495 2.86612 15.8839C3.10054 16.1183 3.41848 16.25 3.75 16.25H18.75ZM32.5 11.25C30.3594 11.25 28.2891 12.6453 27.5781 14.5656C27.4699 14.8748 27.4874 15.2141 27.6268 15.5105C27.7662 15.8069 28.0164 16.0367 28.3235 16.1505C28.6307 16.2644 28.9702 16.2531 29.2691 16.1192C29.568 15.9853 29.8024 15.7394 29.9219 15.4344C30.2719 14.4891 31.4062 13.75 32.5 13.75C33.163 13.75 33.7989 14.0134 34.2678 14.4822C34.7366 14.9511 35 15.587 35 16.25C35 16.913 34.7366 17.5489 34.2678 18.0178C33.7989 18.4866 33.163 18.75 32.5 18.75H5C4.66848 18.75 4.35054 18.8817 4.11612 19.1161C3.8817 19.3505 3.75 19.6685 3.75 20C3.75 20.3315 3.8817 20.6495 4.11612 20.8839C4.35054 21.1183 4.66848 21.25 5 21.25H32.5C33.8261 21.25 35.0979 20.7232 36.0355 19.7855C36.9732 18.8479 37.5 17.5761 37.5 16.25C37.5 14.9239 36.9732 13.6521 36.0355 12.7145C35.0979 11.7768 33.8261 11.25 32.5 11.25Z" fill="white"/>
</svg>
